[ConversionWorker] Logging FFmpeg output to: ffmpeg_logs\ffmpeg_conversion_引入01_wav_20250525_165158.log\n[ConversionWorker] Getting duration with command: ffprobe -v error -show_entries format=duration -of default=noprint_wrappers=1:nokey=1 Z:\Story\引入\引入01.wav\n[ConversionWorker] Duration for 引入01.wav: 11418446 ms\n[ConversionWorker] Starting FFmpeg for 引入01.wav: ffmpeg -i Z:\Story\引入\引入01.wav -b:a 256k -vn -y -loglevel error -stats -progress pipe:1 Z:\Story\引入\引入01.mp3\n[ConversionWorker] FFmpeg process started. PID: 10512\n[STDOUT RAW] bitrate= 153.4kbits/s\n[STDOUT RAW] total_size=78284\n[STDOUT RAW] out_time_us=4081958\n[STDOUT RAW] out_time_ms=4081958\n[STDOUT RAW] out_time=00:00:04.081958\n[STDOUT RAW] dup_frames=0\n[STDOUT RAW] drop_frames=0\n[STDOUT RAW] speed=7.99x\n[STDOUT RAW] progress=continue\n[STDERR RAW] size=      76KiB time=00:00:04.08 bitrate= 153.4kbits/s speed=7.99x\n[STDOUT RAW] bitrate= 156.5kbits/s\n[STDOUT RAW] total_size=151244\n[STDOUT RAW] out_time_us=7729958\n[STDOUT RAW] out_time_ms=7729958\n[STDOUT RAW] out_time=00:00:07.729958\n[STDOUT RAW] dup_frames=0\n[STDOUT RAW] drop_frames=0\n[STDOUT RAW] speed=7.56x\n[STDOUT RAW] progress=continue\n[STDERR RAW] size=     148KiB time=00:00:07.72 bitrate= 156.5kbits/s speed=7.56x\n[STDOUT RAW] bitrate= 157.6kbits/s\n[STDOUT RAW] total_size=219404\n[STDOUT RAW] out_time_us=11137958\n[STDOUT RAW] out_time_ms=11137958\n[STDOUT RAW] out_time=00:00:11.137958\n[STDOUT RAW] dup_frames=0\n[STDOUT RAW] drop_frames=0\n[STDOUT RAW] speed=7.18x\n[STDOUT RAW] progress=continue\n[STDERR RAW] size=     214KiB time=00:00:11.13 bitrate= 157.6kbits/s speed=7.18x\n[STDOUT RAW] bitrate= 136.5kbits/s\n[STDOUT RAW] total_size=1048576\n[STDOUT RAW] out_time_us=61441958\n[STDOUT RAW] out_time_ms=61441958\n[STDOUT RAW] out_time=00:01:01.441958\n[STDOUT RAW] dup_frames=0\n[STDOUT RAW] drop_frames=0\n[STDOUT RAW] speed=29.8x\n[STDOUT RAW] progress=continue\n[STDERR RAW] size=    1024KiB time=00:01:01.44 bitrate= 136.5kbits/s speed=29.8x\n[STDOUT RAW] bitrate= 151.2kbits/s\n[STDOUT RAW] total_size=3407872\n[STDOUT RAW] out_time_us=180265958\n[STDOUT RAW] out_time_ms=180265958\n[STDOUT RAW] out_time=00:03:00.265958\n[STDOUT RAW] dup_frames=0\n[STDOUT RAW] drop_frames=0\n[STDOUT RAW] speed=70.1x\n[STDOUT RAW] progress=continue\n[STDERR RAW] size=    3328KiB time=00:03:00.26 bitrate= 151.2kbits/s speed=70.1x\n[STDOUT RAW] bitrate= 157.7kbits/s\n[STDOUT RAW] total_size=6029312\n[STDOUT RAW] out_time_us=305881958\n[STDOUT RAW] out_time_ms=305881958\n[STDOUT RAW] out_time=00:05:05.881958\n[STDOUT RAW] dup_frames=0\n[STDOUT RAW] drop_frames=0\n[STDOUT RAW] speed=98.7x\n[STDOUT RAW] progress=continue\n[STDERR RAW] size=    5888KiB time=00:05:05.88 bitrate= 157.7kbits/s speed=98.7x\n[STDOUT RAW] bitrate= 157.5kbits/s\n[STDOUT RAW] total_size=8388608\n[STDOUT RAW] out_time_us=426193958\n[STDOUT RAW] out_time_ms=426193958\n[STDOUT RAW] out_time=00:07:06.193958\n[STDOUT RAW] dup_frames=0\n[STDOUT RAW] drop_frames=0\n[STDOUT RAW] speed= 118x\n[STDOUT RAW] progress=continue\n[STDERR RAW] size=    8192KiB time=00:07:06.19 bitrate= 157.5kbits/s speed= 118x\n[STDOUT RAW] bitrate= 156.9kbits/s\n[STDOUT RAW] total_size=10747904\n[STDOUT RAW] out_time_us=547921958\n[STDOUT RAW] out_time_ms=547921958\n[STDOUT RAW] out_time=00:09:07.921958\n[STDOUT RAW] dup_frames=0\n[STDOUT RAW] drop_frames=0\n[STDOUT RAW] speed= 133x\n[STDOUT RAW] progress=continue\n[STDERR RAW] size=   10496KiB time=00:09:07.92 bitrate= 156.9kbits/s speed= 133x\n[STDOUT RAW] bitrate= 159.1kbits/s\n[STDOUT RAW] total_size=13369344\n[STDOUT RAW] out_time_us=672457958\n[STDOUT RAW] out_time_ms=672457958\n[STDOUT RAW] out_time=00:11:12.457958\n[STDOUT RAW] dup_frames=0\n[STDOUT RAW] drop_frames=0\n[STDOUT RAW] speed= 145x\n[STDOUT RAW] progress=continue\n[STDERR RAW] size=   13056KiB time=00:11:12.45 bitrate= 159.1kbits/s speed= 145x\n[STDOUT RAW] bitrate= 158.5kbits/s\n[STDOUT RAW] total_size=15728640\n[STDOUT RAW] out_time_us=794065958\n[STDOUT RAW] out_time_ms=794065958\n[STDOUT RAW] out_time=00:13:14.065958\n[STDOUT RAW] dup_frames=0\n[STDOUT RAW] drop_frames=0\n[STDOUT RAW] speed= 154x\n[STDOUT RAW] progress=continue\n[STDERR RAW] size=   15360KiB time=00:13:14.06 bitrate= 158.5kbits/s speed= 154x\n[STDOUT RAW] bitrate= 158.1kbits/s\n[STDOUT RAW] total_size=18087936\n[STDOUT RAW] out_time_us=915385958\n[STDOUT RAW] out_time_ms=915385958\n[STDOUT RAW] out_time=00:15:15.385958\n[STDOUT RAW] dup_frames=0\n[STDOUT RAW] drop_frames=0\n[STDOUT RAW] speed= 161x\n[STDOUT RAW] progress=continue\n[STDERR RAW] size=   17664KiB time=00:15:15.38 bitrate= 158.1kbits/s speed= 161x\n[STDOUT RAW] bitrate= 158.4kbits/s\n[STDOUT RAW] total_size=20447232\n[STDOUT RAW] out_time_us=1032865958\n[STDOUT RAW] out_time_ms=1032865958\n[STDOUT RAW] out_time=00:17:12.865958\n[STDOUT RAW] dup_frames=0\n[STDOUT RAW] drop_frames=0\n[STDOUT RAW] speed= 167x\n[STDOUT RAW] progress=continue\n[STDERR RAW] size=   19968KiB time=00:17:12.86 bitrate= 158.4kbits/s speed= 167x\n[STDOUT RAW] bitrate= 158.2kbits/s\n[STDOUT RAW] total_size=22806528\n[STDOUT RAW] out_time_us=1153561958\n[STDOUT RAW] out_time_ms=1153561958\n[STDOUT RAW] out_time=00:19:13.561958\n[STDOUT RAW] dup_frames=0\n[STDOUT RAW] drop_frames=0\n[STDOUT RAW] speed= 172x\n[STDOUT RAW] progress=continue\n[STDERR RAW] size=   22272KiB time=00:19:13.56 bitrate= 158.2kbits/s speed= 172x\n[STDOUT RAW] bitrate= 158.5kbits/s\n[STDOUT RAW] total_size=25165824\n[STDOUT RAW] out_time_us=1270417958\n[STDOUT RAW] out_time_ms=1270417958\n[STDOUT RAW] out_time=00:21:10.417958\n[STDOUT RAW] dup_frames=0\n[STDOUT RAW] drop_frames=0\n[STDOUT RAW] speed= 176x\n[STDOUT RAW] progress=continue\n[STDERR RAW] size=   24576KiB time=00:21:10.41 bitrate= 158.5kbits/s speed= 176x\n[STDOUT RAW] bitrate= 158.6kbits/s\n[STDOUT RAW] total_size=27525120\n[STDOUT RAW] out_time_us=1388713958\n[STDOUT RAW] out_time_ms=1388713958\n[STDOUT RAW] out_time=00:23:08.713958\n[STDOUT RAW] dup_frames=0\n[STDOUT RAW] drop_frames=0\n[STDOUT RAW] speed= 179x\n[STDOUT RAW] progress=continue\n[STDERR RAW] size=   26880KiB time=00:23:08.71 bitrate= 158.6kbits/s speed= 179x\n[STDOUT RAW] bitrate= 159.4kbits/s\n[STDOUT RAW] total_size=29884416\n[STDOUT RAW] out_time_us=1499857958\n[STDOUT RAW] out_time_ms=1499857958\n[STDOUT RAW] out_time=00:24:59.857958\n[STDOUT RAW] dup_frames=0\n[STDOUT RAW] drop_frames=0\n[STDOUT RAW] speed= 182x\n[STDOUT RAW] progress=continue\n[STDOUT RAW] bitrate= 158.8kbits/s\n[STDERR RAW] size=   29184KiB time=00:24:59.85 bitrate= 159.4kbits/s speed= 182x\n[STDOUT RAW] total_size=32243712\n[STDOUT RAW] out_time_us=1624129958\n[STDOUT RAW] out_time_ms=1624129958\n[STDOUT RAW] out_time=00:27:04.129958\n[STDOUT RAW] dup_frames=0\n[STDOUT RAW] drop_frames=0\n[STDOUT RAW] speed= 185x\n[STDOUT RAW] progress=continue\n[STDERR RAW] size=   31488KiB time=00:27:04.12 bitrate= 158.8kbits/s speed= 185x\n[STDOUT RAW] bitrate= 158.9kbits/s\n[STDOUT RAW] total_size=34340864\n[STDOUT RAW] out_time_us=1728385958\n[STDOUT RAW] out_time_ms=1728385958\n[STDOUT RAW] out_time=00:28:48.385958\n[STDOUT RAW] dup_frames=0\n[STDOUT RAW] drop_frames=0\n[STDOUT RAW] speed= 186x\n[STDOUT RAW] progress=continue\n[STDOUT RAW] bitrate= 159.4kbits/s\n[STDERR RAW] size=   33536KiB time=00:28:48.38 bitrate= 158.9kbits/s speed= 186x\n[STDOUT RAW] total_size=36700160\n[STDOUT RAW] out_time_us=1841497958\n[STDOUT RAW] out_time_ms=1841497958\n[STDOUT RAW] out_time=00:30:41.497958\n[STDOUT RAW] dup_frames=0\n[STDOUT RAW] drop_frames=0\n[STDOUT RAW] speed= 188x\n[STDOUT RAW] progress=continue\n[STDERR RAW] size=   35840KiB time=00:30:41.49 bitrate= 159.4kbits/s speed= 188x\n[STDOUT RAW] bitrate= 159.3kbits/s\n[STDOUT RAW] total_size=39059456\n[STDOUT RAW] out_time_us=1962049958\n[STDOUT RAW] out_time_ms=1962049958\n[STDOUT RAW] out_time=00:32:42.049958\n[STDOUT RAW] dup_frames=0\n[STDOUT RAW] drop_frames=0\n[STDOUT RAW] speed= 190x\n[STDOUT RAW] progress=continue\n[STDERR RAW] size=   38144KiB time=00:32:42.04 bitrate= 159.3kbits/s speed= 190x\n[STDOUT RAW] bitrate= 159.0kbits/s\n[STDOUT RAW] total_size=41418752\n[STDOUT RAW] out_time_us=2084185958\n[STDOUT RAW] out_time_ms=2084185958\n[STDOUT RAW] out_time=00:34:44.185958\n[STDOUT RAW] dup_frames=0\n[STDOUT RAW] drop_frames=0\n[STDOUT RAW] speed= 193x\n[STDOUT RAW] progress=continue\n[STDERR RAW] size=   40448KiB time=00:34:44.18 bitrate= 159.0kbits/s speed= 193x\n[STDOUT RAW] bitrate= 159.0kbits/s\n[STDOUT RAW] total_size=43778048\n[STDOUT RAW] out_time_us=2202145958\n[STDOUT RAW] out_time_ms=2202145958\n[STDOUT RAW] out_time=00:36:42.145958\n[STDOUT RAW] dup_frames=0\n[STDOUT RAW] drop_frames=0\n[STDOUT RAW] speed= 194x\n[STDOUT RAW] progress=continue\n[STDERR RAW] size=   42752KiB time=00:36:42.14 bitrate= 159.0kbits/s speed= 194x\n[STDOUT RAW] bitrate= 159.8kbits/s\n[STDOUT RAW] total_size=46399488\n[STDOUT RAW] out_time_us=2322985958\n[STDOUT RAW] out_time_ms=2322985958\n[STDOUT RAW] out_time=00:38:42.985958\n[STDOUT RAW] dup_frames=0\n[STDOUT RAW] drop_frames=0\n[STDOUT RAW] speed= 196x\n[STDOUT RAW] progress=continue\n[STDERR RAW] size=   45312KiB time=00:38:42.98 bitrate= 159.8kbits/s speed= 196x\n[STDOUT RAW] bitrate= 159.8kbits/s\n[STDOUT RAW] total_size=48758784\n[STDOUT RAW] out_time_us=2441329958\n[STDOUT RAW] out_time_ms=2441329958\n[STDOUT RAW] out_time=00:40:41.329958\n[STDOUT RAW] dup_frames=0\n[STDOUT RAW] drop_frames=0\n[STDOUT RAW] speed= 197x\n[STDOUT RAW] progress=continue\n[STDERR RAW] size=   47616KiB time=00:40:41.32 bitrate= 159.8kbits/s speed= 197x\n[STDOUT RAW] bitrate= 159.7kbits/s\n[STDOUT RAW] total_size=51118080\n[STDOUT RAW] out_time_us=2560129958\n[STDOUT RAW] out_time_ms=2560129958\n[STDOUT RAW] out_time=00:42:40.129958\n[STDOUT RAW] dup_frames=0\n[STDOUT RAW] drop_frames=0\n[STDOUT RAW] speed= 199x\n[STDOUT RAW] progress=continue\n[STDERR RAW] size=   49920KiB time=00:42:40.12 bitrate= 159.7kbits/s speed= 199x\n[STDOUT RAW] bitrate= 159.2kbits/s\n[STDOUT RAW] total_size=53215232\n[STDOUT RAW] out_time_us=2674009958\n[STDOUT RAW] out_time_ms=2674009958\n[STDOUT RAW] out_time=00:44:34.009958\n[STDOUT RAW] dup_frames=0\n[STDOUT RAW] drop_frames=0\n[STDOUT RAW] speed=200x\n[STDOUT RAW] progress=continue\n[STDERR RAW] size=   51968KiB time=00:44:34.00 bitrate= 159.2kbits/s speed=200x\n[STDOUT RAW] bitrate= 159.3kbits/s\n[STDOUT RAW] total_size=55574528\n[STDOUT RAW] out_time_us=2791681958\n[STDOUT RAW] out_time_ms=2791681958\n[STDOUT RAW] out_time=00:46:31.681958\n[STDOUT RAW] dup_frames=0\n[STDOUT RAW] drop_frames=0\n[STDOUT RAW] speed=200x\n[STDOUT RAW] progress=continue\n[STDERR RAW] size=   54272KiB time=00:46:31.68 bitrate= 159.3kbits/s speed=200x\n[STDOUT RAW] bitrate= 159.3kbits/s\n[STDOUT RAW] total_size=57933824\n[STDOUT RAW] out_time_us=2909113958\n[STDOUT RAW] out_time_ms=2909113958\n[STDOUT RAW] out_time=00:48:29.113958\n[STDOUT RAW] dup_frames=0\n[STDOUT RAW] drop_frames=0\n[STDOUT RAW] speed= 201x\n[STDOUT RAW] progress=continue\n[STDERR RAW] size=   56576KiB time=00:48:29.11 bitrate= 159.3kbits/s speed= 201x\n[STDOUT RAW] bitrate= 160.0kbits/s\n[STDOUT RAW] total_size=60293120\n[STDOUT RAW] out_time_us=3014857958\n[STDOUT RAW] out_time_ms=3014857958\n[STDOUT RAW] out_time=00:50:14.857958\n[STDOUT RAW] dup_frames=0\n[STDOUT RAW] drop_frames=0\n[STDOUT RAW] speed= 202x\n[STDOUT RAW] progress=continue\n[STDERR RAW] size=   58880KiB time=00:50:14.85 bitrate= 160.0kbits/s speed= 202x\n[STDOUT RAW] bitrate= 159.7kbits/s\n[STDOUT RAW] total_size=62652416\n[STDOUT RAW] out_time_us=3138049958\n[STDOUT RAW] out_time_ms=3138049958\n[STDOUT RAW] out_time=00:52:18.049958\n[STDOUT RAW] dup_frames=0\n[STDOUT RAW] drop_frames=0\n[STDOUT RAW] speed= 203x\n[STDOUT RAW] progress=continue\n[STDERR RAW] size=   61184KiB time=00:52:18.04 bitrate= 159.7kbits/s speed= 203x\n[STDOUT RAW] bitrate= 159.3kbits/s\n[STDOUT RAW] total_size=64749568\n[STDOUT RAW] out_time_us=3250705958\n[STDOUT RAW] out_time_ms=3250705958\n[STDOUT RAW] out_time=00:54:10.705958\n[STDOUT RAW] dup_frames=0\n[STDOUT RAW] drop_frames=0\n[STDOUT RAW] speed= 203x\n[STDOUT RAW] progress=continue\n[STDERR RAW] size=   63232KiB time=00:54:10.70 bitrate= 159.3kbits/s speed= 203x\n[STDOUT RAW] bitrate= 159.6kbits/s\n[STDOUT RAW] total_size=67108864\n[STDOUT RAW] out_time_us=3364153958\n[STDOUT RAW] out_time_ms=3364153958\n[STDOUT RAW] out_time=00:56:04.153958\n[STDOUT RAW] dup_frames=0\n[STDOUT RAW] drop_frames=0\n[STDOUT RAW] speed= 204x\n[STDOUT RAW] progress=continue\n[STDERR RAW] size=   65536KiB time=00:56:04.15 bitrate= 159.6kbits/s speed= 204x\n[STDOUT RAW] bitrate= 159.9kbits/s\n[STDOUT RAW] total_size=69468160\n[STDOUT RAW] out_time_us=3476137958\n[STDOUT RAW] out_time_ms=3476137958\n[STDOUT RAW] out_time=00:57:56.137958\n[STDOUT RAW] dup_frames=0\n[STDOUT RAW] drop_frames=0\n[STDOUT RAW] speed= 204x\n[STDOUT RAW] progress=continue\n[STDERR RAW] size=   67840KiB time=00:57:56.13 bitrate= 159.9kbits/s speed= 204x\n[STDOUT RAW] bitrate= 159.4kbits/s\n[STDOUT RAW] total_size=71565312\n[STDOUT RAW] out_time_us=3591505958\n[STDOUT RAW] out_time_ms=3591505958\n[STDOUT RAW] out_time=00:59:51.505958\n[STDOUT RAW] dup_frames=0\n[STDOUT RAW] drop_frames=0\n[STDOUT RAW] speed= 205x\n[STDOUT RAW] progress=continue\n[STDERR RAW] size=   69888KiB time=00:59:51.50 bitrate= 159.4kbits/s speed= 205x\n[STDOUT RAW] bitrate= 160.0kbits/s\n[STDOUT RAW] total_size=74186752\n[STDOUT RAW] out_time_us=3709801958\n[STDOUT RAW] out_time_ms=3709801958\n[STDOUT RAW] out_time=01:01:49.801958\n[STDOUT RAW] dup_frames=0\n[STDOUT RAW] drop_frames=0\n[STDOUT RAW] speed= 206x\n[STDOUT RAW] progress=continue\n[STDERR RAW] size=   72448KiB time=01:01:49.80 bitrate= 160.0kbits/s speed= 206x\n[STDOUT RAW] bitrate= 159.5kbits/s\n[STDOUT RAW] total_size=76283904\n[STDOUT RAW] out_time_us=3826321958\n[STDOUT RAW] out_time_ms=3826321958\n[STDOUT RAW] out_time=01:03:46.321958\n[STDOUT RAW] dup_frames=0\n[STDOUT RAW] drop_frames=0\n[STDOUT RAW] speed= 206x\n[STDOUT RAW] progress=continue\n[STDERR RAW] size=   74496KiB time=01:03:46.32 bitrate= 159.5kbits/s speed= 206x\n[STDOUT RAW] bitrate= 159.9kbits/s\n[STDOUT RAW] total_size=78643200\n[STDOUT RAW] out_time_us=3934585958\n[STDOUT RAW] out_time_ms=3934585958\n[STDOUT RAW] out_time=01:05:34.585958\n[STDOUT RAW] dup_frames=0\n[STDOUT RAW] drop_frames=0\n[STDOUT RAW] speed= 206x\n[STDOUT RAW] progress=continue\n[STDERR RAW] size=   76800KiB time=01:05:34.58 bitrate= 159.9kbits/s speed= 206x\n[STDOUT RAW] bitrate= 159.7kbits/s\n[STDOUT RAW] total_size=80740352\n[STDOUT RAW] out_time_us=4044913958\n[STDOUT RAW] out_time_ms=4044913958\n[STDOUT RAW] out_time=01:07:24.913958\n[STDOUT RAW] dup_frames=0\n[STDOUT RAW] drop_frames=0\n[STDOUT RAW] speed= 206x\n[STDOUT RAW] progress=continue\n[STDERR RAW] size=   78848KiB time=01:07:24.91 bitrate= 159.7kbits/s speed= 206x\n[STDOUT RAW] bitrate= 159.5kbits/s\n[STDOUT RAW] total_size=83099648\n[STDOUT RAW] out_time_us=4168225958\n[STDOUT RAW] out_time_ms=4168225958\n[STDOUT RAW] out_time=01:09:28.225958\n[STDOUT RAW] dup_frames=0\n[STDOUT RAW] drop_frames=0\n[STDOUT RAW] speed= 207x\n[STDOUT RAW] progress=continue\n[STDERR RAW] size=   81152KiB time=01:09:28.22 bitrate= 159.5kbits/s speed= 207x\n[STDOUT RAW] bitrate= 159.7kbits/s\n[STDOUT RAW] total_size=85458944\n[STDOUT RAW] out_time_us=4280689958\n[STDOUT RAW] out_time_ms=4280689958\n[STDOUT RAW] out_time=01:11:20.689958\n[STDOUT RAW] dup_frames=0\n[STDOUT RAW] drop_frames=0\n[STDOUT RAW] speed= 208x\n[STDOUT RAW] progress=continue\n[STDERR RAW] size=   83456KiB time=01:11:20.68 bitrate= 159.7kbits/s speed= 208x\n[STDOUT RAW] bitrate= 160.0kbits/s\n[STDOUT RAW] total_size=87818240\n[STDOUT RAW] out_time_us=4391257958\n[STDOUT RAW] out_time_ms=4391257958\n[STDOUT RAW] out_time=01:13:11.257958\n[STDOUT RAW] dup_frames=0\n[STDOUT RAW] drop_frames=0\n[STDOUT RAW] speed= 208x\n[STDOUT RAW] progress=continue\n[STDERR RAW] size=   85760KiB time=01:13:11.25 bitrate= 160.0kbits/s speed= 208x\n[STDOUT RAW] bitrate= 159.6kbits/s\n[STDOUT RAW] total_size=89915392\n[STDOUT RAW] out_time_us=4507585958\n[STDOUT RAW] out_time_ms=4507585958\n[STDOUT RAW] out_time=01:15:07.585958\n[STDOUT RAW] dup_frames=0\n[STDOUT RAW] drop_frames=0\n[STDOUT RAW] speed= 208x\n[STDOUT RAW] progress=continue\n[STDERR RAW] size=   87808KiB time=01:15:07.58 bitrate= 159.6kbits/s speed= 208x\n[STDOUT RAW] bitrate= 159.5kbits/s\n[STDOUT RAW] total_size=92274688\n[STDOUT RAW] out_time_us=4626961958\n[STDOUT RAW] out_time_ms=4626961958\n[STDOUT RAW] out_time=01:17:06.961958\n[STDOUT RAW] dup_frames=0\n[STDOUT RAW] drop_frames=0\n[STDOUT RAW] speed= 209x\n[STDOUT RAW] progress=continue\n[STDERR RAW] size=   90112KiB time=01:17:06.96 bitrate= 159.5kbits/s speed= 209x\n[STDOUT RAW] bitrate= 159.9kbits/s\n[STDOUT RAW] total_size=94896128\n[STDOUT RAW] out_time_us=4748041958\n[STDOUT RAW] out_time_ms=4748041958\n[STDOUT RAW] out_time=01:19:08.041958\n[STDOUT RAW] dup_frames=0\n[STDOUT RAW] drop_frames=0\n[STDOUT RAW] speed= 209x\n[STDOUT RAW] progress=continue\n[STDERR RAW] size=   92672KiB time=01:19:08.04 bitrate= 159.9kbits/s speed= 209x\n[STDOUT RAW] bitrate= 159.9kbits/s\n[STDOUT RAW] total_size=96993280\n[STDOUT RAW] out_time_us=4853113958\n[STDOUT RAW] out_time_ms=4853113958\n[STDOUT RAW] out_time=01:20:53.113958\n[STDOUT RAW] dup_frames=0\n[STDOUT RAW] drop_frames=0\n[STDOUT RAW] speed= 209x\n[STDOUT RAW] progress=continue\n[STDERR RAW] size=   94720KiB time=01:20:53.11 bitrate= 159.9kbits/s speed= 209x\n[STDOUT RAW] bitrate= 159.8kbits/s\n[STDOUT RAW] total_size=98828288\n[STDOUT RAW] out_time_us=4946545958\n[STDOUT RAW] out_time_ms=4946545958\n[STDOUT RAW] out_time=01:22:26.545958\n[STDOUT RAW] dup_frames=0\n[STDOUT RAW] drop_frames=0\n[STDOUT RAW] speed= 209x\n[STDOUT RAW] progress=continue\n[STDERR RAW] size=   96512KiB time=01:22:26.54 bitrate= 159.8kbits/s speed= 209x\n[STDOUT RAW] bitrate= 159.7kbits/s\n[STDOUT RAW] total_size=100663296\n[STDOUT RAW] out_time_us=5042353958\n[STDOUT RAW] out_time_ms=5042353958\n[STDOUT RAW] out_time=01:24:02.353958\n[STDOUT RAW] dup_frames=0\n[STDOUT RAW] drop_frames=0\n[STDOUT RAW] speed= 208x\n[STDOUT RAW] progress=continue\n[STDERR RAW] size=   98304KiB time=01:24:02.35 bitrate= 159.7kbits/s speed= 208x\n[STDOUT RAW] bitrate= 159.7kbits/s\n[STDOUT RAW] total_size=102498304\n[STDOUT RAW] out_time_us=5134201958\n[STDOUT RAW] out_time_ms=5134201958\n[STDOUT RAW] out_time=01:25:34.201958\n[STDOUT RAW] dup_frames=0\n[STDOUT RAW] drop_frames=0\n[STDOUT RAW] speed= 207x\n[STDOUT RAW] progress=continue\n[STDERR RAW] size=  100096KiB time=01:25:34.20 bitrate= 159.7kbits/s speed= 207x\n[STDOUT RAW] bitrate= 159.9kbits/s\n[STDOUT RAW] total_size=104333312\n[STDOUT RAW] out_time_us=5221345958\n[STDOUT RAW] out_time_ms=5221345958\n[STDOUT RAW] out_time=01:27:01.345958\n[STDOUT RAW] dup_frames=0\n[STDOUT RAW] drop_frames=0\n[STDOUT RAW] speed= 207x\n[STDOUT RAW] progress=continue\n[STDERR RAW] size=  101888KiB time=01:27:01.34 bitrate= 159.9kbits/s speed= 207x\n[STDOUT RAW] bitrate= 159.7kbits/s\n[STDOUT RAW] total_size=106168320\n[STDOUT RAW] out_time_us=5318233958\n[STDOUT RAW] out_time_ms=5318233958\n[STDOUT RAW] out_time=01:28:38.233958\n[STDOUT RAW] dup_frames=0\n[STDOUT RAW] drop_frames=0\n[STDOUT RAW] speed= 206x\n[STDOUT RAW] progress=continue\n[STDERR RAW] size=  103680KiB time=01:28:38.23 bitrate= 159.7kbits/s speed= 206x\n[STDOUT RAW] bitrate= 159.7kbits/s\n[STDOUT RAW] total_size=108003328\n[STDOUT RAW] out_time_us=5409865958\n[STDOUT RAW] out_time_ms=5409865958\n[STDOUT RAW] out_time=01:30:09.865958\n[STDOUT RAW] dup_frames=0\n[STDOUT RAW] drop_frames=0\n[STDOUT RAW] speed= 206x\n[STDOUT RAW] progress=continue\n[STDERR RAW] size=  105472KiB time=01:30:09.86 bitrate= 159.7kbits/s speed= 206x\n[STDOUT RAW] bitrate= 159.6kbits/s\n[STDOUT RAW] total_size=109838336\n[STDOUT RAW] out_time_us=5504353958\n[STDOUT RAW] out_time_ms=5504353958\n[STDOUT RAW] out_time=01:31:44.353958\n[STDOUT RAW] dup_frames=0\n[STDOUT RAW] drop_frames=0\n[STDOUT RAW] speed= 205x\n[STDOUT RAW] progress=continue\n[STDERR RAW] size=  107264KiB time=01:31:44.35 bitrate= 159.6kbits/s speed= 205x\n[STDOUT RAW] bitrate= 159.8kbits/s\n[STDOUT RAW] total_size=111935488\n[STDOUT RAW] out_time_us=5603089958\n[STDOUT RAW] out_time_ms=5603089958\n[STDOUT RAW] out_time=01:33:23.089958\n[STDOUT RAW] dup_frames=0\n[STDOUT RAW] drop_frames=0\n[STDOUT RAW] speed= 205x\n[STDOUT RAW] progress=continue\n[STDERR RAW] size=  109312KiB time=01:33:23.08 bitrate= 159.8kbits/s speed= 205x\n[STDOUT RAW] bitrate= 159.9kbits/s\n[STDOUT RAW] total_size=114032640\n[STDOUT RAW] out_time_us=5704033958\n[STDOUT RAW] out_time_ms=5704033958\n[STDOUT RAW] out_time=01:35:04.033958\n[STDOUT RAW] dup_frames=0\n[STDOUT RAW] drop_frames=0\n[STDOUT RAW] speed= 205x\n[STDOUT RAW] progress=continue\n[STDERR RAW] size=  111360KiB time=01:35:04.03 bitrate= 159.9kbits/s speed= 205x\n[STDOUT RAW] bitrate= 159.8kbits/s\n[STDOUT RAW] total_size=115867648\n[STDOUT RAW] out_time_us=5799169958\n[STDOUT RAW] out_time_ms=5799169958\n[STDOUT RAW] out_time=01:36:39.169958\n[STDOUT RAW] dup_frames=0\n[STDOUT RAW] drop_frames=0\n[STDOUT RAW] speed= 205x\n[STDOUT RAW] progress=continue\n[STDERR RAW] size=  113152KiB time=01:36:39.16 bitrate= 159.8kbits/s speed= 205x\n[STDOUT RAW] bitrate= 159.8kbits/s\n[STDOUT RAW] total_size=117702656\n[STDOUT RAW] out_time_us=5893489958\n[STDOUT RAW] out_time_ms=5893489958\n[STDOUT RAW] out_time=01:38:13.489958\n[STDOUT RAW] dup_frames=0\n[STDOUT RAW] drop_frames=0\n[STDOUT RAW] speed= 204x\n[STDOUT RAW] progress=continue\n[STDERR RAW] size=  114944KiB time=01:38:13.48 bitrate= 159.8kbits/s speed= 204x\n[STDOUT RAW] bitrate= 159.7kbits/s\n[STDOUT RAW] total_size=119537664\n[STDOUT RAW] out_time_us=5986873958\n[STDOUT RAW] out_time_ms=5986873958\n[STDOUT RAW] out_time=01:39:46.873958\n[STDOUT RAW] dup_frames=0\n[STDOUT RAW] drop_frames=0\n[STDOUT RAW] speed= 204x\n[STDOUT RAW] progress=continue\n[STDERR RAW] size=  116736KiB time=01:39:46.87 bitrate= 159.7kbits/s speed= 204x\n[STDOUT RAW] bitrate= 159.9kbits/s\n[STDOUT RAW] total_size=121634816\n[STDOUT RAW] out_time_us=6086233958\n[STDOUT RAW] out_time_ms=6086233958\n[STDOUT RAW] out_time=01:41:26.233958\n[STDOUT RAW] dup_frames=0\n[STDOUT RAW] drop_frames=0\n[STDOUT RAW] speed= 204x\n[STDOUT RAW] progress=continue\n[STDERR RAW] size=  118784KiB time=01:41:26.23 bitrate= 159.9kbits/s speed= 204x\n[STDOUT RAW] bitrate= 159.9kbits/s\n[STDOUT RAW] total_size=123731968\n[STDOUT RAW] out_time_us=6188881958\n[STDOUT RAW] out_time_ms=6188881958\n[STDOUT RAW] out_time=01:43:08.881958\n[STDOUT RAW] dup_frames=0\n[STDOUT RAW] drop_frames=0\n[STDOUT RAW] speed= 203x\n[STDOUT RAW] progress=continue\n[STDERR RAW] size=  120832KiB time=01:43:08.88 bitrate= 159.9kbits/s speed= 203x\n[STDOUT RAW] bitrate= 159.9kbits/s\n[STDOUT RAW] total_size=125566976\n[STDOUT RAW] out_time_us=6282745958\n[STDOUT RAW] out_time_ms=6282745958\n[STDOUT RAW] out_time=01:44:42.745958\n[STDOUT RAW] dup_frames=0\n[STDOUT RAW] drop_frames=0\n[STDOUT RAW] speed= 203x\n[STDOUT RAW] progress=continue\n[STDERR RAW] size=  122624KiB time=01:44:42.74 bitrate= 159.9kbits/s speed= 203x\n[STDOUT RAW] bitrate= 160.0kbits/s\n[STDOUT RAW] total_size=127664128\n[STDOUT RAW] out_time_us=6384241958\n[STDOUT RAW] out_time_ms=6384241958\n[STDOUT RAW] out_time=01:46:24.241958\n[STDOUT RAW] dup_frames=0\n[STDOUT RAW] drop_frames=0\n[STDOUT RAW] speed= 203x\n[STDOUT RAW] progress=continue\n[STDERR RAW] size=  124672KiB time=01:46:24.24 bitrate= 160.0kbits/s speed= 203x\n[STDOUT RAW] bitrate= 159.8kbits/s\n[STDOUT RAW] total_size=129499136\n[STDOUT RAW] out_time_us=6482737958\n[STDOUT RAW] out_time_ms=6482737958\n[STDOUT RAW] out_time=01:48:02.737958\n[STDOUT RAW] dup_frames=0\n[STDOUT RAW] drop_frames=0\n[STDOUT RAW] speed= 203x\n[STDOUT RAW] progress=continue\n[STDERR RAW] size=  126464KiB time=01:48:02.73 bitrate= 159.8kbits/s speed= 203x\n[STDOUT RAW] bitrate= 159.8kbits/s\n[STDOUT RAW] total_size=131334144\n[STDOUT RAW] out_time_us=6576865958\n[STDOUT RAW] out_time_ms=6576865958\n[STDOUT RAW] out_time=01:49:36.865958\n[STDOUT RAW] dup_frames=0\n[STDOUT RAW] drop_frames=0\n[STDOUT RAW] speed= 202x\n[STDOUT RAW] progress=continue\n[STDERR RAW] size=  128256KiB time=01:49:36.86 bitrate= 159.8kbits/s speed= 202x\n[STDOUT RAW] bitrate= 159.8kbits/s\n[STDOUT RAW] total_size=133169152\n[STDOUT RAW] out_time_us=6666049958\n[STDOUT RAW] out_time_ms=6666049958\n[STDOUT RAW] out_time=01:51:06.049958\n[STDOUT RAW] dup_frames=0\n[STDOUT RAW] drop_frames=0\n[STDOUT RAW] speed= 202x\n[STDOUT RAW] progress=continue\n[STDERR RAW] size=  130048KiB time=01:51:06.04 bitrate= 159.8kbits/s speed= 202x\n[STDOUT RAW] bitrate= 159.7kbits/s\n[STDOUT RAW] total_size=135004160\n[STDOUT RAW] out_time_us=6763441958\n[STDOUT RAW] out_time_ms=6763441958\n[STDOUT RAW] out_time=01:52:43.441958\n[STDOUT RAW] dup_frames=0\n[STDOUT RAW] drop_frames=0\n[STDOUT RAW] speed= 202x\n[STDOUT RAW] progress=continue\n[STDERR RAW] size=  131840KiB time=01:52:43.44 bitrate= 159.7kbits/s speed= 202x\n[STDOUT RAW] bitrate= 160.0kbits/s\n[STDOUT RAW] total_size=137101312\n[STDOUT RAW] out_time_us=6856681958\n[STDOUT RAW] out_time_ms=6856681958\n[STDOUT RAW] out_time=01:54:16.681958\n[STDOUT RAW] dup_frames=0\n[STDOUT RAW] drop_frames=0\n[STDOUT RAW] speed= 201x\n[STDOUT RAW] progress=continue\n[STDERR RAW] size=  133888KiB time=01:54:16.68 bitrate= 160.0kbits/s speed= 201x\n[STDOUT RAW] bitrate= 159.8kbits/s\n[STDOUT RAW] total_size=138936320\n[STDOUT RAW] out_time_us=6956569958\n[STDOUT RAW] out_time_ms=6956569958\n[STDOUT RAW] out_time=01:55:56.569958\n[STDOUT RAW] dup_frames=0\n[STDOUT RAW] drop_frames=0\n[STDOUT RAW] speed= 201x\n[STDOUT RAW] progress=continue\n[STDERR RAW] size=  135680KiB time=01:55:56.56 bitrate= 159.8kbits/s speed= 201x\n[STDOUT RAW] bitrate= 159.8kbits/s\n[STDOUT RAW] total_size=140771328\n[STDOUT RAW] out_time_us=7048993958\n[STDOUT RAW] out_time_ms=7048993958\n[STDOUT RAW] out_time=01:57:28.993958\n[STDOUT RAW] dup_frames=0\n[STDOUT RAW] drop_frames=0\n[STDOUT RAW] speed= 201x\n[STDOUT RAW] progress=continue\n[STDERR RAW] size=  137472KiB time=01:57:28.99 bitrate= 159.8kbits/s speed= 201x\n[STDOUT RAW] bitrate= 159.7kbits/s\n[STDOUT RAW] total_size=142606336\n[STDOUT RAW] out_time_us=7143553958\n[STDOUT RAW] out_time_ms=7143553958\n[STDOUT RAW] out_time=01:59:03.553958\n[STDOUT RAW] dup_frames=0\n[STDOUT RAW] drop_frames=0\n[STDOUT RAW] speed= 201x\n[STDOUT RAW] progress=continue\n[STDERR RAW] size=  139264KiB time=01:59:03.55 bitrate= 159.7kbits/s speed= 201x\n[STDOUT RAW] bitrate= 159.8kbits/s\n[STDOUT RAW] total_size=144441344\n[STDOUT RAW] out_time_us=7232833958\n[STDOUT RAW] out_time_ms=7232833958\n[STDOUT RAW] out_time=02:00:32.833958\n[STDOUT RAW] dup_frames=0\n[STDOUT RAW] drop_frames=0\n[STDOUT RAW] speed=200x\n[STDOUT RAW] progress=continue\n[STDERR RAW] size=  141056KiB time=02:00:32.83 bitrate= 159.8kbits/s speed=200x\n[STDOUT RAW] bitrate= 159.7kbits/s\n[STDOUT RAW] total_size=146276352\n[STDOUT RAW] out_time_us=7327057958\n[STDOUT RAW] out_time_ms=7327057958\n[STDOUT RAW] out_time=02:02:07.057958\n[STDOUT RAW] dup_frames=0\n[STDOUT RAW] drop_frames=0\n[STDOUT RAW] speed=200x\n[STDOUT RAW] progress=continue\n[STDERR RAW] size=  142848KiB time=02:02:07.05 bitrate= 159.7kbits/s speed=200x\n[STDOUT RAW] bitrate= 159.8kbits/s\n[STDOUT RAW] total_size=148373504\n[STDOUT RAW] out_time_us=7428769958\n[STDOUT RAW] out_time_ms=7428769958\n[STDOUT RAW] out_time=02:03:48.769958\n[STDOUT RAW] dup_frames=0\n[STDOUT RAW] drop_frames=0\n[STDOUT RAW] speed=200x\n[STDOUT RAW] progress=continue\n[STDOUT RAW] bitrate= 159.8kbits/s\n[STDERR RAW] size=  144896KiB time=02:03:48.76 bitrate= 159.8kbits/s speed=200x\n[STDOUT RAW] total_size=150208512\n[STDOUT RAW] out_time_us=7518601958\n[STDOUT RAW] out_time_ms=7518601958\n[STDOUT RAW] out_time=02:05:18.601958\n[STDOUT RAW] dup_frames=0\n[STDOUT RAW] drop_frames=0\n[STDOUT RAW] speed=200x\n[STDOUT RAW] progress=continue\n[STDERR RAW] size=  146688KiB time=02:05:18.60 bitrate= 159.8kbits/s speed=200x\n[STDOUT RAW] bitrate= 160.0kbits/s\n[STDOUT RAW] total_size=152305664\n[STDOUT RAW] out_time_us=7617145958\n[STDOUT RAW] out_time_ms=7617145958\n[STDOUT RAW] out_time=02:06:57.145958\n[STDOUT RAW] dup_frames=0\n[STDOUT RAW] drop_frames=0\n[STDOUT RAW] speed=200x\n[STDOUT RAW] progress=continue\n[STDERR RAW] size=  148736KiB time=02:06:57.14 bitrate= 160.0kbits/s speed=200x\n[STDOUT RAW] bitrate= 159.8kbits/s\n[STDOUT RAW] total_size=154140672\n[STDOUT RAW] out_time_us=7714489958\n[STDOUT RAW] out_time_ms=7714489958\n[STDOUT RAW] out_time=02:08:34.489958\n[STDOUT RAW] dup_frames=0\n[STDOUT RAW] drop_frames=0\n[STDOUT RAW] speed= 199x\n[STDOUT RAW] progress=continue\n[STDERR RAW] size=  150528KiB time=02:08:34.48 bitrate= 159.8kbits/s speed= 199x\n[STDOUT RAW] bitrate= 159.7kbits/s\n[STDOUT RAW] total_size=155713536\n[STDOUT RAW] out_time_us=7798921958\n[STDOUT RAW] out_time_ms=7798921958\n[STDOUT RAW] out_time=02:09:58.921958\n[STDOUT RAW] dup_frames=0\n[STDOUT RAW] drop_frames=0\n[STDOUT RAW] speed= 199x\n[STDOUT RAW] progress=continue\n[STDERR RAW] size=  152064KiB time=02:09:58.92 bitrate= 159.7kbits/s speed= 199x\n[STDOUT RAW] bitrate= 160.0kbits/s\n[STDOUT RAW] total_size=158072832\n[STDOUT RAW] out_time_us=7904593958\n[STDOUT RAW] out_time_ms=7904593958\n[STDOUT RAW] out_time=02:11:44.593958\n[STDOUT RAW] dup_frames=0\n[STDOUT RAW] drop_frames=0\n[STDOUT RAW] speed= 199x\n[STDOUT RAW] progress=continue\n[STDERR RAW] size=  154368KiB time=02:11:44.59 bitrate= 160.0kbits/s speed= 199x\n[STDOUT RAW] bitrate= 159.9kbits/s\n[STDOUT RAW] total_size=159907840\n[STDOUT RAW] out_time_us=8001025958\n[STDOUT RAW] out_time_ms=8001025958\n[STDOUT RAW] out_time=02:13:21.025958\n[STDOUT RAW] dup_frames=0\n[STDOUT RAW] drop_frames=0\n[STDOUT RAW] speed= 199x\n[STDOUT RAW] progress=continue\n[STDERR RAW] size=  156160KiB time=02:13:21.02 bitrate= 159.9kbits/s speed= 199x\n[STDOUT RAW] bitrate= 159.9kbits/s\n[STDOUT RAW] total_size=161742848\n[STDOUT RAW] out_time_us=8091097958\n[STDOUT RAW] out_time_ms=8091097958\n[STDOUT RAW] out_time=02:14:51.097958\n[STDOUT RAW] dup_frames=0\n[STDOUT RAW] drop_frames=0\n[STDOUT RAW] speed= 199x\n[STDOUT RAW] progress=continue\n[STDERR RAW] size=  157952KiB time=02:14:51.09 bitrate= 159.9kbits/s speed= 199x\n[STDOUT RAW] bitrate= 159.8kbits/s\n[STDOUT RAW] total_size=163577856\n[STDOUT RAW] out_time_us=8187961958\n[STDOUT RAW] out_time_ms=8187961958\n[STDOUT RAW] out_time=02:16:27.961958\n[STDOUT RAW] dup_frames=0\n[STDOUT RAW] drop_frames=0\n[STDOUT RAW] speed= 198x\n[STDOUT RAW] progress=continue\n[STDERR RAW] size=  159744KiB time=02:16:27.96 bitrate= 159.8kbits/s speed= 198x\n[STDOUT RAW] bitrate= 159.8kbits/s\n[STDOUT RAW] total_size=165412864\n[STDOUT RAW] out_time_us=8282689958\n[STDOUT RAW] out_time_ms=8282689958\n[STDOUT RAW] out_time=02:18:02.689958\n[STDOUT RAW] dup_frames=0\n[STDOUT RAW] drop_frames=0\n[STDOUT RAW] speed= 198x\n[STDOUT RAW] progress=continue\n[STDERR RAW] size=  161536KiB time=02:18:02.68 bitrate= 159.8kbits/s speed= 198x\n[STDOUT RAW] bitrate= 160.0kbits/s\n[STDOUT RAW] total_size=167510016\n[STDOUT RAW] out_time_us=8377465958\n[STDOUT RAW] out_time_ms=8377465958\n[STDOUT RAW] out_time=02:19:37.465958\n[STDOUT RAW] dup_frames=0\n[STDOUT RAW] drop_frames=0\n[STDOUT RAW] speed= 198x\n[STDOUT RAW] progress=continue\n[STDERR RAW] size=  163584KiB time=02:19:37.46 bitrate= 160.0kbits/s speed= 198x\n[STDOUT RAW] bitrate= 159.8kbits/s\n[STDOUT RAW] total_size=169345024\n[STDOUT RAW] out_time_us=8477473958\n[STDOUT RAW] out_time_ms=8477473958\n[STDOUT RAW] out_time=02:21:17.473958\n[STDOUT RAW] dup_frames=0\n[STDOUT RAW] drop_frames=0\n[STDOUT RAW] speed= 198x\n[STDOUT RAW] progress=continue\n[STDERR RAW] size=  165376KiB time=02:21:17.47 bitrate= 159.8kbits/s speed= 198x\n[STDOUT RAW] bitrate= 159.9kbits/s\n[STDOUT RAW] total_size=171180032\n[STDOUT RAW] out_time_us=8565145958\n[STDOUT RAW] out_time_ms=8565145958\n[STDOUT RAW] out_time=02:22:45.145958\n[STDOUT RAW] dup_frames=0\n[STDOUT RAW] drop_frames=0\n[STDOUT RAW] speed= 198x\n[STDOUT RAW] progress=continue\n[STDERR RAW] size=  167168KiB time=02:22:45.14 bitrate= 159.9kbits/s speed= 198x\n[STDOUT RAW] bitrate= 159.8kbits/s\n[STDOUT RAW] total_size=173015040\n[STDOUT RAW] out_time_us=8662441958\n[STDOUT RAW] out_time_ms=8662441958\n[STDOUT RAW] out_time=02:24:22.441958\n[STDOUT RAW] dup_frames=0\n[STDOUT RAW] drop_frames=0\n[STDOUT RAW] speed= 198x\n[STDOUT RAW] progress=continue\n[STDERR RAW] size=  168960KiB time=02:24:22.44 bitrate= 159.8kbits/s speed= 198x\n[STDOUT RAW] bitrate= 159.9kbits/s\n[STDOUT RAW] total_size=174850048\n[STDOUT RAW] out_time_us=8747185958\n[STDOUT RAW] out_time_ms=8747185958\n[STDOUT RAW] out_time=02:25:47.185958\n[STDOUT RAW] dup_frames=0\n[STDOUT RAW] drop_frames=0\n[STDOUT RAW] speed= 197x\n[STDOUT RAW] progress=continue\n[STDERR RAW] size=  170752KiB time=02:25:47.18 bitrate= 159.9kbits/s speed= 197x\n[STDOUT RAW] bitrate= 159.9kbits/s\n[STDOUT RAW] total_size=176685056\n[STDOUT RAW] out_time_us=8837809958\n[STDOUT RAW] out_time_ms=8837809958\n[STDOUT RAW] out_time=02:27:17.809958\n[STDOUT RAW] dup_frames=0\n[STDOUT RAW] drop_frames=0\n[STDOUT RAW] speed= 197x\n[STDOUT RAW] progress=continue\n[STDERR RAW] size=  172544KiB time=02:27:17.80 bitrate= 159.9kbits/s speed= 197x\n[STDOUT RAW] bitrate= 159.8kbits/s\n[STDOUT RAW] total_size=178520064\n[STDOUT RAW] out_time_us=8937889958\n[STDOUT RAW] out_time_ms=8937889958\n[STDOUT RAW] out_time=02:28:57.889958\n[STDOUT RAW] dup_frames=0\n[STDOUT RAW] drop_frames=0\n[STDOUT RAW] speed= 197x\n[STDOUT RAW] progress=continue\n[STDERR RAW] size=  174336KiB time=02:28:57.88 bitrate= 159.8kbits/s speed= 197x\n[STDOUT RAW] bitrate= 159.8kbits/s\n[STDOUT RAW] total_size=180355072\n[STDOUT RAW] out_time_us=9030985958\n[STDOUT RAW] out_time_ms=9030985958\n[STDOUT RAW] out_time=02:30:30.985958\n[STDOUT RAW] dup_frames=0\n[STDOUT RAW] drop_frames=0\n[STDOUT RAW] speed= 197x\n[STDOUT RAW] progress=continue\n[STDERR RAW] size=  176128KiB time=02:30:30.98 bitrate= 159.8kbits/s speed= 197x\n[STDOUT RAW] bitrate= 159.8kbits/s\n[STDOUT RAW] total_size=182190080\n[STDOUT RAW] out_time_us=9122737958\n[STDOUT RAW] out_time_ms=9122737958\n[STDOUT RAW] out_time=02:32:02.737958\n[STDOUT RAW] dup_frames=0\n[STDOUT RAW] drop_frames=0\n[STDOUT RAW] speed= 197x\n[STDOUT RAW] progress=continue\n[STDERR RAW] size=  177920KiB time=02:32:02.73 bitrate= 159.8kbits/s speed= 197x\n[STDOUT RAW] bitrate= 159.9kbits/s\n[STDOUT RAW] total_size=184287232\n[STDOUT RAW] out_time_us=9222673958\n[STDOUT RAW] out_time_ms=9222673958\n[STDOUT RAW] out_time=02:33:42.673958\n[STDOUT RAW] dup_frames=0\n[STDOUT RAW] drop_frames=0\n[STDOUT RAW] speed= 196x\n[STDOUT RAW] progress=continue\n[STDERR RAW] size=  179968KiB time=02:33:42.67 bitrate= 159.9kbits/s speed= 196x\n[STDOUT RAW] bitrate= 159.9kbits/s\n[STDOUT RAW] total_size=186122240\n[STDOUT RAW] out_time_us=9313417958\n[STDOUT RAW] out_time_ms=9313417958\n[STDOUT RAW] out_time=02:35:13.417958\n[STDOUT RAW] dup_frames=0\n[STDOUT RAW] drop_frames=0\n[STDOUT RAW] speed= 196x\n[STDOUT RAW] progress=continue\n[STDERR RAW] size=  181760KiB time=02:35:13.41 bitrate= 159.9kbits/s speed= 196x\n[STDOUT RAW] bitrate= 159.9kbits/s\n[STDOUT RAW] total_size=187957248\n[STDOUT RAW] out_time_us=9404113958\n[STDOUT RAW] out_time_ms=9404113958\n[STDOUT RAW] out_time=02:36:44.113958\n[STDOUT RAW] dup_frames=0\n[STDOUT RAW] drop_frames=0\n[STDOUT RAW] speed= 196x\n[STDOUT RAW] progress=continue\n[STDERR RAW] size=  183552KiB time=02:36:44.11 bitrate= 159.9kbits/s speed= 196x\n[STDOUT RAW] bitrate= 160.0kbits/s\n[STDOUT RAW] total_size=189792256\n[STDOUT RAW] out_time_us=9490753958\n[STDOUT RAW] out_time_ms=9490753958\n[STDOUT RAW] out_time=02:38:10.753958\n[STDOUT RAW] dup_frames=0\n[STDOUT RAW] drop_frames=0\n[STDOUT RAW] speed= 196x\n[STDOUT RAW] progress=continue\n[STDERR RAW] size=  185344KiB time=02:38:10.75 bitrate= 160.0kbits/s speed= 196x\n[STDOUT RAW] bitrate= 160.0kbits/s\n[STDOUT RAW] total_size=191627264\n[STDOUT RAW] out_time_us=9582577958\n[STDOUT RAW] out_time_ms=9582577958\n[STDOUT RAW] out_time=02:39:42.577958\n[STDOUT RAW] dup_frames=0\n[STDOUT RAW] drop_frames=0\n[STDOUT RAW] speed= 196x\n[STDOUT RAW] progress=continue\n[STDERR RAW] size=  187136KiB time=02:39:42.57 bitrate= 160.0kbits/s speed= 196x\n[STDOUT RAW] bitrate= 159.8kbits/s\n[STDOUT RAW] total_size=193200128\n[STDOUT RAW] out_time_us=9673249958\n[STDOUT RAW] out_time_ms=9673249958\n[STDOUT RAW] out_time=02:41:13.249958\n[STDOUT RAW] dup_frames=0\n[STDOUT RAW] drop_frames=0\n[STDOUT RAW] speed= 195x\n[STDOUT RAW] progress=continue\n[STDERR RAW] size=  188672KiB time=02:41:13.24 bitrate= 159.8kbits/s speed= 195x\n[STDOUT RAW] bitrate= 159.9kbits/s\n[STDOUT RAW] total_size=195035136\n[STDOUT RAW] out_time_us=9756937958\n[STDOUT RAW] out_time_ms=9756937958\n[STDOUT RAW] out_time=02:42:36.937958\n[STDOUT RAW] dup_frames=0\n[STDOUT RAW] drop_frames=0\n[STDOUT RAW] speed= 195x\n[STDOUT RAW] progress=continue\n[STDERR RAW] size=  190464KiB time=02:42:36.93 bitrate= 159.9kbits/s speed= 195x\n[STDOUT RAW] bitrate= 160.0kbits/s\n[STDOUT RAW] total_size=196870144\n[STDOUT RAW] out_time_us=9843841958\n[STDOUT RAW] out_time_ms=9843841958\n[STDOUT RAW] out_time=02:44:03.841958\n[STDOUT RAW] dup_frames=0\n[STDOUT RAW] drop_frames=0\n[STDOUT RAW] speed= 195x\n[STDOUT RAW] progress=continue\n[STDERR RAW] size=  192256KiB time=02:44:03.84 bitrate= 160.0kbits/s speed= 195x\n[STDOUT RAW] bitrate= 159.8kbits/s\n[STDOUT RAW] total_size=198443008\n[STDOUT RAW] out_time_us=9935209958\n[STDOUT RAW] out_time_ms=9935209958\n[STDOUT RAW] out_time=02:45:35.209958\n[STDOUT RAW] dup_frames=0\n[STDOUT RAW] drop_frames=0\n[STDOUT RAW] speed= 195x\n[STDOUT RAW] progress=continue\n[STDERR RAW] size=  193792KiB time=02:45:35.20 bitrate= 159.8kbits/s speed= 195x\n[STDOUT RAW] bitrate= 160.0kbits/s\n[STDOUT RAW] total_size=200540160\n[STDOUT RAW] out_time_us=10029241958\n[STDOUT RAW] out_time_ms=10029241958\n[STDOUT RAW] out_time=02:47:09.241958\n[STDOUT RAW] dup_frames=0\n[STDOUT RAW] drop_frames=0\n[STDOUT RAW] speed= 194x\n[STDOUT RAW] progress=continue\n[STDERR RAW] size=  195840KiB time=02:47:09.24 bitrate= 160.0kbits/s speed= 194x\n[STDOUT RAW] bitrate= 159.9kbits/s\n[STDOUT RAW] total_size=202113024\n[STDOUT RAW] out_time_us=10114009958\n[STDOUT RAW] out_time_ms=10114009958\n[STDOUT RAW] out_time=02:48:34.009958\n[STDOUT RAW] dup_frames=0\n[STDOUT RAW] drop_frames=0\n[STDOUT RAW] speed= 194x\n[STDOUT RAW] progress=continue\n[STDERR RAW] size=  197376KiB time=02:48:34.00 bitrate= 159.9kbits/s speed= 194x\n[STDOUT RAW] bitrate= 159.8kbits/s\n[STDOUT RAW] total_size=203685888\n[STDOUT RAW] out_time_us=10197529958\n[STDOUT RAW] out_time_ms=10197529958\n[STDOUT RAW] out_time=02:49:57.529958\n[STDOUT RAW] dup_frames=0\n[STDOUT RAW] drop_frames=0\n[STDOUT RAW] speed= 194x\n[STDOUT RAW] progress=continue\n[STDERR RAW] size=  198912KiB time=02:49:57.52 bitrate= 159.8kbits/s speed= 194x\n[STDOUT RAW] bitrate= 159.8kbits/s\n[STDOUT RAW] total_size=205258752\n[STDOUT RAW] out_time_us=10276177958\n[STDOUT RAW] out_time_ms=10276177958\n[STDOUT RAW] out_time=02:51:16.177958\n[STDOUT RAW] dup_frames=0\n[STDOUT RAW] drop_frames=0\n[STDOUT RAW] speed= 193x\n[STDOUT RAW] progress=continue\n[STDERR RAW] size=  200448KiB time=02:51:16.17 bitrate= 159.8kbits/s speed= 193x\n[STDOUT RAW] bitrate= 160.0kbits/s\n[STDOUT RAW] total_size=207355904\n[STDOUT RAW] out_time_us=10370113958\n[STDOUT RAW] out_time_ms=10370113958\n[STDOUT RAW] out_time=02:52:50.113958\n[STDOUT RAW] dup_frames=0\n[STDOUT RAW] drop_frames=0\n[STDOUT RAW] speed= 193x\n[STDOUT RAW] progress=continue\n[STDERR RAW] size=  202496KiB time=02:52:50.11 bitrate= 160.0kbits/s speed= 193x\n[STDOUT RAW] bitrate= 159.8kbits/s\n[STDOUT RAW] total_size=208928768\n[STDOUT RAW] out_time_us=10459681958\n[STDOUT RAW] out_time_ms=10459681958\n[STDOUT RAW] out_time=02:54:19.681958\n[STDOUT RAW] dup_frames=0\n[STDOUT RAW] drop_frames=0\n[STDOUT RAW] speed= 193x\n[STDOUT RAW] progress=continue\n[STDERR RAW] size=  204032KiB time=02:54:19.68 bitrate= 159.8kbits/s speed= 193x\n[STDOUT RAW] bitrate= 160.0kbits/s\n[STDOUT RAW] total_size=211025920\n[STDOUT RAW] out_time_us=10552105958\n[STDOUT RAW] out_time_ms=10552105958\n[STDOUT RAW] out_time=02:55:52.105958\n[STDOUT RAW] dup_frames=0\n[STDOUT RAW] drop_frames=0\n[STDOUT RAW] speed= 193x\n[STDOUT RAW] progress=continue\n[STDERR RAW] size=  206080KiB time=02:55:52.10 bitrate= 160.0kbits/s speed= 193x\n[STDOUT RAW] bitrate= 160.0kbits/s\n[STDOUT RAW] total_size=212860928\n[STDOUT RAW] out_time_us=10645417958\n[STDOUT RAW] out_time_ms=10645417958\n[STDOUT RAW] out_time=02:57:25.417958\n[STDOUT RAW] dup_frames=0\n[STDOUT RAW] drop_frames=0\n[STDOUT RAW] speed= 193x\n[STDOUT RAW] progress=continue\n[STDERR RAW] size=  207872KiB time=02:57:25.41 bitrate= 160.0kbits/s speed= 193x\n[STDOUT RAW] bitrate= 159.8kbits/s\n[STDOUT RAW] total_size=214433792\n[STDOUT RAW] out_time_us=10734937958\n[STDOUT RAW] out_time_ms=10734937958\n[STDOUT RAW] out_time=02:58:54.937958\n[STDOUT RAW] dup_frames=0\n[STDOUT RAW] drop_frames=0\n[STDOUT RAW] speed= 193x\n[STDOUT RAW] progress=continue\n[STDERR RAW] size=  209408KiB time=02:58:54.93 bitrate= 159.8kbits/s speed= 193x\n[STDOUT RAW] bitrate= 159.9kbits/s\n[STDOUT RAW] total_size=216530944\n[STDOUT RAW] out_time_us=10834897958\n[STDOUT RAW] out_time_ms=10834897958\n[STDOUT RAW] out_time=03:00:34.897958\n[STDOUT RAW] dup_frames=0\n[STDOUT RAW] drop_frames=0\n[STDOUT RAW] speed= 193x\n[STDOUT RAW] progress=continue\n[STDERR RAW] size=  211456KiB time=03:00:34.89 bitrate= 159.9kbits/s speed= 193x\n[STDOUT RAW] bitrate= 159.8kbits/s\n[STDOUT RAW] total_size=218365952\n[STDOUT RAW] out_time_us=10931545958\n[STDOUT RAW] out_time_ms=10931545958\n[STDOUT RAW] out_time=03:02:11.545958\n[STDOUT RAW] dup_frames=0\n[STDOUT RAW] drop_frames=0\n[STDOUT RAW] speed= 193x\n[STDOUT RAW] progress=continue\n[STDERR RAW] size=  213248KiB time=03:02:11.54 bitrate= 159.8kbits/s speed= 193x\n[STDOUT RAW] bitrate= 160.0kbits/s\n[STDOUT RAW] total_size=220463104\n[STDOUT RAW] out_time_us=11026297958\n[STDOUT RAW] out_time_ms=11026297958\n[STDOUT RAW] out_time=03:03:46.297958\n[STDOUT RAW] dup_frames=0\n[STDOUT RAW] drop_frames=0\n[STDOUT RAW] speed= 193x\n[STDOUT RAW] progress=continue\n[STDERR RAW] size=  215296KiB time=03:03:46.29 bitrate= 160.0kbits/s speed= 193x\n[STDOUT RAW] bitrate= 159.8kbits/s\n[STDOUT RAW] total_size=222298112\n[STDOUT RAW] out_time_us=11128153958\n[STDOUT RAW] out_time_ms=11128153958\n[STDOUT RAW] out_time=03:05:28.153958\n[STDOUT RAW] dup_frames=0\n[STDOUT RAW] drop_frames=0\n[STDOUT RAW] speed= 193x\n[STDOUT RAW] progress=continue\n[STDERR RAW] size=  217088KiB time=03:05:28.15 bitrate= 159.8kbits/s speed= 193x\n[STDOUT RAW] bitrate= 159.8kbits/s\n[STDOUT RAW] total_size=224133120\n[STDOUT RAW] out_time_us=11219905958\n[STDOUT RAW] out_time_ms=11219905958\n[STDOUT RAW] out_time=03:06:59.905958\n[STDOUT RAW] dup_frames=0\n[STDOUT RAW] drop_frames=0\n[STDOUT RAW] speed= 192x\n[STDOUT RAW] progress=continue\n[STDERR RAW] size=  218880KiB time=03:06:59.90 bitrate= 159.8kbits/s speed= 192x\n[STDOUT RAW] bitrate= 159.9kbits/s\n[STDOUT RAW] total_size=225968128\n[STDOUT RAW] out_time_us=11303545958\n[STDOUT RAW] out_time_ms=11303545958\n[STDOUT RAW] out_time=03:08:23.545958\n[STDOUT RAW] dup_frames=0\n[STDOUT RAW] drop_frames=0\n[STDOUT RAW] speed= 192x\n[STDOUT RAW] progress=continue\n[STDERR RAW] size=  220672KiB time=03:08:23.54 bitrate= 159.9kbits/s speed= 192x\n[STDOUT RAW] bitrate= 159.8kbits/s\n[STDOUT RAW] total_size=228065280\n[STDOUT RAW] out_time_us=11414737958\n[STDOUT RAW] out_time_ms=11414737958\n[STDOUT RAW] out_time=03:10:14.737958\n[STDOUT RAW] dup_frames=0\n[STDOUT RAW] drop_frames=0\n[STDOUT RAW] speed= 192x\n[STDOUT RAW] progress=continue\n[STDERR RAW] size=  222720KiB time=03:10:14.73 bitrate= 159.8kbits/s speed= 192x\n[STDOUT RAW] bitrate= 160.0kbits/s\n[STDERR RAW] size=  223018KiB time=03:10:18.44 bitrate= 160.0kbits/s speed= 192x\n[STDOUT RAW] total_size=228370604\n[STDOUT RAW] out_time_us=11418446000\n[STDOUT RAW] out_time_ms=11418446000\n[STDOUT RAW] out_time=03:10:18.446000\n[STDOUT RAW] dup_frames=0\n[STDOUT RAW] drop_frames=0\n[STDOUT RAW] speed= 192x\n[STDOUT RAW] progress=end\n[ConversionWorker] STDERR pipe closed signal received.\n[ConversionWorker] Detected 'progress=end' for 引入01.wav\n[ConversionWorker] STDOUT pipe closed signal received.\n[ConversionWorker] Process finished and both stream pipes closed. Exiting loop.\n[ConversionWorker] Waiting for reader threads to join...\n[ConversionWorker] FFmpeg process ended. Return code: 0\n[ConversionWorker] Closing FFmpeg log file.\n